<svg id="Espro_logo" data-name="Espro logo" xmlns="http://www.w3.org/2000/svg" width="112.186" height="26" viewBox="0 0 112.186 26">
  <path id="Path_2" data-name="Path 2" d="M147.875,145.5H132.692a.6.6,0,0,0-.64.671v23.612a.6.6,0,0,0,.64.672h15.182a.6.6,0,0,0,.639-.672V168.05a.6.6,0,0,0-.639-.672H135.527v-8.033h10.152a.6.6,0,0,0,.639-.67v-1.737a.6.6,0,0,0-.639-.672H135.527v-7.684h12.348a.6.6,0,0,0,.639-.671v-1.737A.6.6,0,0,0,147.875,145.5Z" transform="translate(-132.052 -144.98)" fill="#221f20"/>
  <path id="Path_3" data-name="Path 3" d="M204.425,156.237l-5.489-1.737c-2.625-.844-3.7-1.962-3.7-3.858,0-2.264,1.979-3.67,5.165-3.67,3.091,0,5.153,1.421,5.963,4.11a.7.7,0,0,0,.688.578h1.976a.624.624,0,0,0,.49-.205.711.711,0,0,0,.143-.6c-.848-4.427-4.223-6.966-9.26-6.966-5.167,0-8.639,2.782-8.639,6.923,0,3.335,1.818,5.538,5.56,6.735l5.493,1.737h0c2.564.81,3.659,1.964,3.659,3.857,0,2.3-2.048,3.669-5.479,3.669s-5.58-1.383-6.4-4.108a.692.692,0,0,0-.689-.58h-1.976a.622.622,0,0,0-.487.2.714.714,0,0,0-.146.6c.86,4.493,4.3,6.967,9.7,6.967,5.438,0,8.952-2.717,8.952-6.921C209.952,159.656,208.092,157.391,204.425,156.237Z" transform="translate(-172.122 -143.893)" fill="#221f20"/>
  <path id="Path_4" data-name="Path 4" d="M272.743,145.5h-9.1a.6.6,0,0,0-.639.671v23.612a.6.6,0,0,0,.639.672h2.2a.6.6,0,0,0,.639-.672V162.47h6.263c5.471,0,8.483-3.012,8.483-8.483S278.213,145.5,272.743,145.5Zm0,13.888H266.48V148.582h6.263c3.23,0,5.009,1.92,5.009,5.406S275.973,159.391,272.743,159.391Z" transform="translate(-220.629 -144.98)" fill="#221f20"/>
  <path id="Path_5" data-name="Path 5" d="M411.246,143.9a13,13,0,1,0,13.047,13A13.038,13.038,0,0,0,411.246,143.9Zm0,22.618a9.619,9.619,0,1,1,9.654-9.619A9.647,9.647,0,0,1,411.246,166.513Z" transform="translate(-312.108 -143.894)" fill="#221f20"/>
  <path id="Path_6" data-name="Path 6" d="M348.392,163.2c-.337-.583-1.274-2.189-1.936-3.278a6.874,6.874,0,0,0,4.8-6.634c0-4.876-3.171-7.787-8.482-7.787H334a.6.6,0,0,0-.642.671v23.612a.6.6,0,0,0,.642.672h2.193a.6.6,0,0,0,.639-.672v-8.7h6.208l1.5,2.445,3.766,6.425a.879.879,0,0,0,.748.506h2.573a.614.614,0,0,0,.589-.277.6.6,0,0,0-.058-.63Zm-.606-9.912c0,2.951-1.872,4.713-5.008,4.713h-5.949V148.58h5.949C345.913,148.58,347.786,150.341,347.786,153.29Z" transform="translate(-268.214 -144.98)" fill="#221f20"/>
</svg>
