<svg xmlns="http://www.w3.org/2000/svg" width="10" height="11.428" viewBox="0 0 10 11.428"><defs><style>.a{fill:#fff;fill-rule:evenodd;}</style></defs><g transform="translate(10) rotate(90)"><path class="a" d="M.2.21A.651.651,0,0,1,.672,0a.651.651,0,0,1,.475.21L5.175,4.495a.747.747,0,0,1,0,1.011L1.148,9.791a.644.644,0,0,1-.95,0,.748.748,0,0,1,0-1.011L3.75,5,.2,1.22A.747.747,0,0,1,.2.209Z" transform="translate(6.056)"/><path class="a" d="M0,.671A.7.7,0,0,1,.717,0h9.321a.7.7,0,0,1,.717.671.7.7,0,0,1-.717.671H.717A.7.7,0,0,1,0,.671Z" transform="translate(0 4.329)"/></g></svg>