<?xml version="1.0" encoding="utf-8"?>
<!-- Generator: Adobe Illustrator 26.5.0, SVG Export Plug-In . SVG Version: 6.00 Build 0)  -->
<svg version="1.1" id="Layer_1" xmlns="http://www.w3.org/2000/svg" xmlns:xlink="http://www.w3.org/1999/xlink" x="0px" y="0px"
	 viewBox="0 0 12.8 11.4" style="enable-background:new 0 0 12.8 11.4;" xml:space="preserve">
<style type="text/css">
	.st0{fill-rule:evenodd;clip-rule:evenodd;fill:#231F20;}
</style>
<g id="arrow-right-short" transform="translate(10) rotate(90)">
	<path id="Path_22" class="st0" d="M10.5,4c0.3,0.2,0.3,0.6,0,0.9c0,0,0,0,0,0L6.2,9c-0.3,0.3-0.7,0.3-1,0L0.9,5
		c-0.3-0.2-0.3-0.6,0-0.9c0,0,0,0,0,0c0.3-0.3,0.7-0.3,1,0l3.8,3.6L9.5,4C9.8,3.8,10.2,3.8,10.5,4z"/>
	<path id="Path_23" class="st0" d="M5.7-2.2c0.4,0,0.7,0.3,0.7,0.7v9.3c0,0.4-0.2,0.7-0.6,0.7S5.1,8.3,5,7.9c0,0,0-0.1,0-0.1v-9.3
		C5-1.9,5.3-2.2,5.7-2.2z"/>
</g>
</svg>
