<?xml version="1.0" encoding="utf-8"?>
<!-- Generator: Adobe Illustrator 26.5.0, SVG Export Plug-In . SVG Version: 6.00 Build 0)  -->
<svg version="1.1" id="Layer_1" xmlns="http://www.w3.org/2000/svg" xmlns:xlink="http://www.w3.org/1999/xlink" x="0px" y="0px"
	 viewBox="0 0 12.8 11.4" style="enable-background:new 0 0 12.8 11.4;" xml:space="preserve">
<style type="text/css">
	.st0{fill-rule:evenodd;clip-rule:evenodd;fill:#231F20;}
</style>
<g id="arrow-right-short" transform="translate(10) rotate(90)">
	<path id="Path_22" class="st0" d="M0.9,3C0.7,2.7,0.6,2.3,0.9,2c0,0,0,0,0,0l4.3-4c0.3-0.3,0.7-0.3,1,0l4.3,4
		c0.3,0.2,0.3,0.6,0,0.9c0,0,0,0,0,0c-0.3,0.3-0.7,0.3-1,0L5.7-0.6L1.9,3C1.7,3.2,1.2,3.2,0.9,3z"/>
	<path id="Path_23" class="st0" d="M5.7,9.2C5.3,9.2,5,8.9,5,8.5v-9.3c0-0.4,0.2-0.7,0.6-0.7s0.7,0.2,0.7,0.6c0,0,0,0.1,0,0.1v9.3
		C6.4,8.9,6.1,9.2,5.7,9.2z"/>
</g>
</svg>
