<svg xmlns="http://www.w3.org/2000/svg" width="110.813" height="110.813" viewBox="0 0 110.813 110.813"><defs><style>.a,.b,.d{fill:#231f20;}.a{font-size:10px;}.a,.b{font-family:BrandonGrotesque-Black, Brandon Grotesque;font-weight:800;}.b{font-size:6px;}.c{fill:none;stroke:#231f20;stroke-miterlimit:10;stroke-width:1.395px;}</style></defs><g transform="matrix(0.985, -0.174, 0.174, 0.985, 0.808, 17.176)"><text class="a" transform="matrix(0.911, -0.412, 0.412, 0.911, 28.667, 16.122)"><tspan x="0" y="0">B</tspan></text><text class="a" transform="translate(37.008 12.511) rotate(-9.701)"><tspan x="0" y="0">R</tspan></text><text class="a" transform="matrix(0.997, 0.078, -0.078, 0.997, 46.675, 11.226)"><tspan x="0" y="0">E</tspan></text><text class="a" transform="translate(55.382 11.941) rotate(20.839)"><tspan x="0" y="0">W</tspan></text><text class="a" transform="matrix(0.197, 0.98, -0.98, 0.197, 5.59, 52.019)"><tspan x="0" y="0">P</tspan></text><text class="a" transform="translate(7.925 61.885) rotate(63.009)"><tspan x="0" y="0">O</tspan></text><text class="a" transform="translate(14.086 72.774) rotate(46.366)"><tspan x="0" y="0">U</tspan></text><text class="a" transform="matrix(0.859, 0.512, -0.512, 0.859, 22.461, 80.913)"><tspan x="0" y="0">R</tspan></text><text class="b" transform="matrix(0.942, 0.335, -0.335, 0.942, 33.57, 81.223)"><tspan x="0" y="0"> </tspan></text><text class="b" transform="matrix(0.977, 0.215, -0.215, 0.977, 37.972, 82.684)"><tspan x="0" y="0"> </tspan></text><text class="b" transform="translate(42.508 83.484) rotate(5.211)"><tspan x="0" y="0"> </tspan></text><text class="b" transform="translate(47.042 83.785) rotate(-1.814)"><tspan x="0" y="0"> </tspan></text><text class="b" transform="translate(51.6 83.571) rotate(-8.935)"><tspan x="0" y="0"> </tspan></text><text class="b" transform="matrix(0.961, -0.278, 0.278, 0.961, 56.096, 82.664)"><tspan x="0" y="0"> </tspan></text><text class="a" transform="matrix(0.894, -0.448, 0.448, 0.894, 62.664, 85.964)"><tspan x="0" y="0">E</tspan></text><text class="a" transform="translate(71.604 81.133) rotate(-41.925)"><tspan x="0" y="0">N</tspan></text><text class="a" transform="matrix(0.563, -0.826, 0.826, 0.563, 80.135, 72.63)"><tspan x="0" y="0">J</tspan></text><text class="a" transform="translate(84.638 65.864) rotate(-69.802)"><tspan x="0" y="0">O</tspan></text><text class="a" transform="translate(88.32 54.08) rotate(-85.173)"><tspan x="0" y="0">Y</tspan></text><circle class="c" cx="30.496" cy="30.496" r="30.496" transform="translate(16.634 16.634)"/><circle class="c" cx="47.13" cy="47.13" r="47.13" transform="translate(0 0)"/><line class="c" x1="15.549" y2="6.532" transform="translate(75.545 29.519)"/><line class="c" x2="15.549" y2="6.532" transform="translate(3.404 29.519)"/><line class="c" y2="16.333" transform="translate(47.13 77.927)"/><path class="d" d="M6.078,0H.238A.225.225,0,0,0,0,.251V9.368a.225.225,0,0,0,.238.252H6.078a.226.226,0,0,0,.238-.252V8.7a.225.225,0,0,0-.238-.251H1.321V5.329H5.234a.224.224,0,0,0,.238-.25V4.408a.225.225,0,0,0-.238-.251H1.321V1.173H6.078A.225.225,0,0,0,6.316.922V.251A.225.225,0,0,0,6.078,0" transform="translate(25.545 42.228)"/><path class="d" d="M5.041,4.765,2.93,4.094C1.917,3.767,1.5,3.334,1.5,2.6c0-.879.765-1.424,1.995-1.424A2.176,2.176,0,0,1,5.8,2.766a.261.261,0,0,0,.256.217h.76A.232.232,0,0,0,7,2.907a.269.269,0,0,0,.053-.224A3.27,3.27,0,0,0,3.5,0C1.515,0,.183,1.071.183,2.664A2.6,2.6,0,0,0,2.315,5.257l2.113.671c.99.314,1.413.762,1.413,1.5,0,.892-.791,1.424-2.116,1.424A2.269,2.269,0,0,1,1.257,7.257.259.259,0,0,0,1,7.04H.239a.23.23,0,0,0-.181.075A.27.27,0,0,0,0,7.338c.33,1.73,1.652,2.684,3.722,2.684,2.088,0,3.437-1.046,3.437-2.664A2.612,2.612,0,0,0,5.041,4.765" transform="translate(32.951 42.028)"/><path class="d" d="M3.737,0H.238A.225.225,0,0,0,0,.251V9.368a.226.226,0,0,0,.238.252h.845a.226.226,0,0,0,.238-.252V6.536H3.737A2.942,2.942,0,0,0,6.993,3.269,2.943,2.943,0,0,0,3.737,0M5.672,3.269c0,1.35-.688,2.094-1.935,2.094H1.321V1.173H3.737c1.248,0,1.935.744,1.935,2.1" transform="translate(41.917 42.228)"/><path class="d" d="M5.012,0a5.011,5.011,0,1,0,5.011,5.012A5.017,5.017,0,0,0,5.012,0M8.733,5.012A3.721,3.721,0,1,1,5.012,1.289,3.725,3.725,0,0,1,8.733,5.012" transform="translate(58.693 42.21)"/><path class="d" d="M5.77,6.831c-.13-.227-.495-.853-.75-1.274A2.648,2.648,0,0,0,6.872,3c0-1.877-1.217-3-3.254-3H.239A.226.226,0,0,0,0,.251V9.368a.226.226,0,0,0,.239.252h.843a.226.226,0,0,0,.238-.252V6h2.4l.58.948L5.749,9.429a.334.334,0,0,0,.281.191h.99a.228.228,0,0,0,.22-.1.225.225,0,0,0-.022-.235ZM5.552,3A1.73,1.73,0,0,1,3.617,4.827h-2.3V1.173h2.3A1.73,1.73,0,0,1,5.552,3" transform="translate(50.711 42.228)"/></g></svg>